<svg xmlns="http://www.w3.org/2000/svg" viewBox="0 0 860 330" font-family="system-ui, -apple-system, Segoe UI, sans-serif" font-size="15">
<defs>
<marker id="arB" viewBox="0 0 10 10" refX="8" refY="5" markerWidth="7" markerHeight="7" orient="auto-start-reverse"><path d="M0,0 L10,5 L0,10 z" fill="#3b6fd6"/></marker>
<marker id="arG" viewBox="0 0 10 10" refX="8" refY="5" markerWidth="7" markerHeight="7" orient="auto-start-reverse"><path d="M0,0 L10,5 L0,10 z" fill="#2eaa6a"/></marker>
<marker id="arO" viewBox="0 0 10 10" refX="8" refY="5" markerWidth="7" markerHeight="7" orient="auto-start-reverse"><path d="M0,0 L10,5 L0,10 z" fill="#ef8f2c"/></marker>
</defs>
<rect x="320" y="20" width="220" height="90" rx="10" fill="#eaf7f0" stroke="#5fc292" stroke-width="2"/>
<text x="430" y="50" fill="#212529" text-anchor="middle" font-weight="700">GitHub (origin)</text><text x="430" y="74" fill="#212529" text-anchor="middle">dépôt du groupe</text><text x="430" y="94" fill="#212529" text-anchor="middle">historique complet</text>
<rect x="40" y="220" width="260" height="90" rx="10" fill="#eef3fc" stroke="#6f97dd" stroke-width="2"/>
<text x="170" y="250" fill="#212529" text-anchor="middle" font-weight="700">Vous</text>
<rect x="560" y="220" width="260" height="90" rx="10" fill="#eef3fc" stroke="#6f97dd" stroke-width="2"/>
<text x="690" y="250" fill="#212529" text-anchor="middle" font-weight="700">Votre binôme</text>
<text x="170" y="278" fill="#212529" text-anchor="middle">votre copie</text><text x="690" y="278" fill="#212529" text-anchor="middle">sa copie</text>
<line x1="140" y1="216" x2="350" y2="112" stroke="#3b6fd6" stroke-width="3" marker-end="url(#arB)"/>
<line x1="380" y1="112" x2="200" y2="216" stroke="#2eaa6a" stroke-width="3" marker-end="url(#arG)"/>
<line x1="720" y1="216" x2="510" y2="112" stroke="#3b6fd6" stroke-width="3" marker-end="url(#arB)"/>
<line x1="480" y1="112" x2="660" y2="216" stroke="#2eaa6a" stroke-width="3" marker-end="url(#arG)"/>
<rect x="111" y="138" width="89" height="24" rx="6" fill="#f1f3f5" stroke="#ced4da"/>
<text x="156" y="155" fill="#212529" text-anchor="middle" font-family="ui-monospace, SFMono-Regular, Menlo, monospace" font-size="14">git push</text>
<rect x="300" y="188" width="89" height="24" rx="6" fill="#f1f3f5" stroke="#ced4da"/>
<text x="344" y="205" fill="#212529" text-anchor="middle" font-family="ui-monospace, SFMono-Regular, Menlo, monospace" font-size="14">git pull</text>
<rect x="660" y="138" width="89" height="24" rx="6" fill="#f1f3f5" stroke="#ced4da"/>
<text x="704" y="155" fill="#212529" text-anchor="middle" font-family="ui-monospace, SFMono-Regular, Menlo, monospace" font-size="14">git push</text>
<rect x="471" y="188" width="89" height="24" rx="6" fill="#f1f3f5" stroke="#ced4da"/>
<text x="516" y="205" fill="#212529" text-anchor="middle" font-family="ui-monospace, SFMono-Regular, Menlo, monospace" font-size="14">git pull</text>
<text x="430" y="180" fill="#6c757d" text-anchor="middle" font-size="14">à chaque séance</text>
</svg>
